<svg xmlns="http://www.w3.org/2000/svg" version="1.1" xmlns:xlink="http://www.w3.org/1999/xlink" width="512" height="512" x="0" y="0" viewBox="0 0 48 48" style="enable-background:new 0 0 512 512" xml:space="preserve" class=""><g><path d="M43 10H33V7c0-2.757-2.243-5-5-5h-8c-2.757 0-5 2.243-5 5v3H5c-1.654 0-3 1.346-3 3v8c0 1.355.393 2.617 1.063 3.69A.972.972 0 0 0 3 25v16c0 2.757 2.243 5 5 5h32c2.757 0 5-2.243 5-5V25c0-.11-.03-.211-.063-.31A6.943 6.943 0 0 0 46 21v-8c0-1.654-1.346-3-3-3zM17 7c0-1.654 1.346-3 3-3h8c1.654 0 3 1.346 3 3v3H17zm26 34c0 1.654-1.346 3-3 3H8c-1.654 0-3-1.346-3-3V26.736A6.956 6.956 0 0 0 9 28h9v3a1 1 0 0 0 1 1h10a1 1 0 0 0 1-1v-3h9c1.487 0 2.865-.47 4-1.264zM20 30v-2h8v2zm24-9c0 2.757-2.243 5-5 5 0 0-25.018.002-30 0-2.757 0-5-2.243-5-5v-8c0-.551.449-1 1-1h38c.552 0 1 .449 1 1z" fill="#3d3d3d" opacity="1" data-original="#000000" class=""></path></g></svg>